<svg xmlns="http://www.w3.org/2000/svg" xml:space="preserve" width="1500" height="1500" data-id="lg_FJjXKQmHEDQWSamBlf" data-version="1" viewBox="0 0 1500 1500"><path fill="#fe0039" stroke="transparent" d="M0 0h1500v1500H0z"/><g data-padding="20"><g transform="translate(-619.38 -625.457)scale(1.78185)"><path fill="none" stroke="#c1c1c1" stroke-width="10.57" d="M683.234 888.722h-158.55a26.425 26.425 0 0 0 0 52.85h158.55a26.425 26.425 0 0 0 0-52.85m105.7-63.42a36.995 36.995 0 1 0 0 73.99 36.995 36.995 0 1 0 0-73.99Zm105.7 0a36.995 36.995 0 1 0 0 73.99 36.995 36.995 0 1 0 0-73.99Zm105.7 0a36.995 36.995 0 1 0 0 73.99 36.995 36.995 0 1 0 0-73.99Z"/><rect width="200.655" height="332.22" x="347.19" y="375.749" fill="none" rx="0" ry="0" transform="translate(121.36 181.3)scale(1.09)"/> <path fill="#0a1627" d="M625.591 872.043h-55.447v-42.62h47.437q13.45 0 21.31-7.531 7.847-7.531 7.847-19.707 0-8.011-3.52-14.268-3.532-6.246-10.105-9.614-6.56-3.357-15.532-3.357h-47.438v-41.344h43.905q11.216 0 18.432-5.613 7.205-5.603 7.205-17.462t-7.205-17.462q-7.216-5.613-18.432-5.613h-43.904v-42.62h57.683q21.157 0 36.7 8.012t23.871 21.473 8.328 30.444q0 22.748-15.544 37.649-15.532 14.91-45.017 18.432v-19.228q32.69 3.848 49.988 20.993 17.31 17.146 17.31 43.099 0 19.228-9.615 34.128t-27.086 23.555q-17.462 8.654-41.17 8.654m-44.548 0h-56.397v-227.21h56.396Z"/></g><path fill="transparent" stroke="transparent" stroke-width="1.851" d="M250 415.057h997.427v669.886H250.001z"/></g></svg>